# xmcd
#
# Track frame offsets: 
#        150
#        14958
#        33066
#        56135
#        67817
#        81715
#        95534
#        111205
#        125902
#        136092
#        153737
#        169170
#        182454
#        192931
#        206748
#
# Disc length: 2949 seconds
#
# Revision: 3
# Processed by: cddbd v1.5.2PL0 Copyright (c) Steve Scherf et al.
# Submitted via: ExactAudioCopy v0.99pb5
#
DISCID=db0b830f
DTITLE=Various Artist - Gentlemen of Country Sing Christmas Favorites
DYEAR=1998
DGENRE=Christian
TTITLE0=Charley Pride - Joy to the World
TTITLE1=Glen Campbell - The Little Drummer Boy
TTITLE2=Lee Greenwood - The Twelve Days of Christmas
TTITLE3=Merle Haggard - If We Make It Through December
TTITLE4=B. J. Thomas - The First Noel
TTITLE5=Waylon Jennings - Away In a Manger
TTITLE6=Roy Clark - It Came Upon a Midnight Clear
TTITLE7=B. J. Thomas - Silent Night
TTITLE8=Merle Haggard - Santa Claus and Popcorn
TTITLE9=Glen Campbell - Carol Medley
TTITLE10=Tom T. Hall - O Christmas Tree
TTITLE11=Roy Clark - God Rest Ye Merry, Gentlemen
TTITLE12=Larry Gatlin - I Heard the Bells on Christmas Day
TTITLE13=Lee Greenwood - What Child Is This?
TTITLE14=Waylon Jennings - O Come, All Ye Faithful
EXTD=
EXTT0=
EXTT1=
EXTT2=
EXTT3=
EXTT4=
EXTT5=
EXTT6=
EXTT7=
EXTT8=
EXTT9=
EXTT10=
EXTT11=
EXTT12=
EXTT13=
EXTT14=
PLAYORDER=
